<svg className="h-8 w-8 mr-2"
     xmlns="http://www.w3.org/2000/svg" enable-background="new 0 0 32 32" viewBox="0 0 32 32"
     id="plurk-p">
    <path fill="#fff9dd" d="m26 32h-20c-3.314 0-6-2.686-6-6v-20c0-3.314 2.686-6 6-6h20c3.314 0 6 2.686 6 6v20c0 3.314-2.686 6-6 6z"></path>
    <path fill="#ffe777" d="m13.75 13h4.5v3h-4.5z"></path>
    <path fill="#ffd200" d="m22.667 8h-13.334c-.736 0-1.333.597-1.333 1.333v13.333c0 .737.597 1.334 1.333 1.334h13.333c.737 0 1.334-.597 1.334-1.333v-13.334c0-.736-.597-1.333-1.333-1.333zm-1.417 11h-7.5v3h-3v-12h10.5z"></path>
</svg>